PathFileType	4	(X/Y/Z)	C:/Users/opensim2020/Desktop/walking_exp_matlab/subject03_walking04_straight_01.trc	
DataRate	CameraRate	NumFrames	NumMarkers	Units	OrigDataRate	OrigDataStartFrame	OrigNumFrames	
100.00	100.00	5	51	mm	100.00	901	265	
Frame#	Time	LFHD			RFHD			LBHD			RBHD			C7			T10			CLAV			STRN			RBAK			LSHO			LUPA			LELB			LFRM			LWRA			LWRB			LFIN			RSHO			RUPA			RELB			RFRM			RWRA			RWRB			RFIN			LASI			RASI			LPSI			RPSI			LTHI			LKNE			LTIB			LANK			LHEE			LTOE			RTHI			RKNE			RTIB			RANK			RHEE			RTOE			*39			*40			*41			*42			*43			*44			*45			*46			*47			*48			*49			*50			
		X1	Y1	Z1	X2	Y2	Z2	X3	Y3	Z3	X4	Y4	Z4	X5	Y5	Z5	X6	Y6	Z6	X7	Y7	Z7	X8	Y8	Z8	X9	Y9	Z9	X10	Y10	Z10	X11	Y11	Z11	X12	Y12	Z12	X13	Y13	Z13	X14	Y14	Z14	X15	Y15	Z15	X16	Y16	Z16	X17	Y17	Z17	X18	Y18	Z18	X19	Y19	Z19	X20	Y20	Z20	X21	Y21	Z21	X22	Y22	Z22	X23	Y23	Z23	X24	Y24	Z24	X25	Y25	Z25	X26	Y26	Z26	X27	Y27	Z27	X28	Y28	Z28	X29	Y29	Z29	X30	Y30	Z30	X31	Y31	Z31	X32	Y32	Z32	X33	Y33	Z33	X34	Y34	Z34	X35	Y35	Z35	X36	Y36	Z36	X37	Y37	Z37	X38	Y38	Z38	X39	Y39	Z39	X40	Y40	Z40	X41	Y41	Z41	X42	Y42	Z42	X43	Y43	Z43	X44	Y44	Z44	X45	Y45	Z45	X46	Y46	Z46	X47	Y47	Z47	X48	Y48	Z48	X49	Y49	Z49	X50	Y50	Z50	X51	Y51	Z51	

166	1.650	-1249.83105	145.53845	1617.77832	-1118.69373	120.28298	1624.26477	-1266.92505	23.00105	1562.06274	-1137.40405	3.42223	1568.61865	-1196.24133	-4.81173	1411.15198	-1189.48328	-45.69449	1100.32776	-1191.93579	115.92999	1333.97546	-1193.87402	155.45923	1166.54578	-1091.42822	-58.51867	1241.91406	-1349.87476	71.98066	1369.04724	-1417.61340	40.08620	1170.80457	-1428.69055	32.09849	1047.98157	-1428.18665	41.18823	917.11713	-1398.31470	43.67650	798.43469	-1449.43152	21.91111	806.36432	-1439.13013	23.45481	721.80811	-1034.10571	73.98885	1362.09204	-953.43311	116.99506	1148.77393	-939.08160	161.85710	1046.10608	-940.32477	221.35355	922.81812	-980.24664	277.37552	842.62152	-933.96698	253.71234	827.81091	-946.50677	299.56766	769.91754	-1303.58459	123.53041	936.41974	-1066.75281	116.21532	930.82928	-1261.56775	-41.04079	954.07025	-1111.10815	-42.35375	964.61383	-1361.17468	147.06706	642.74841	-1324.98169	214.19031	478.59705	-1331.42273	187.52260	284.61420	-1298.37183	195.53410	73.12905	-1260.22852	157.73149	33.94841	-1273.38696	342.13437	47.16219	-1039.83167	32.17875	638.12775	-1080.08923	18.76021	459.73462	-1080.64429	-53.43492	281.61392	-1134.49719	-114.00517	73.90616	-1184.66602	-161.48105	45.70882	-1150.07837	25.53094	30.58620	-1216.77820	48.66364	1675.08386																																	 
167	1.660	-1250.82080	155.73427	1616.14734	-1119.71936	130.50166	1623.00891	-1267.76379	33.01110	1560.73340	-1138.24109	13.54163	1567.68958	-1196.92114	4.94323	1410.11804	-1190.69580	-36.88987	1099.32275	-1192.41345	125.57243	1332.56689	-1194.12854	164.41577	1165.03955	-1092.14990	-49.44574	1241.13977	-1350.51978	82.01347	1367.68738	-1418.60095	47.87494	1169.96191	-1429.41602	38.33815	1046.99402	-1428.62219	46.49992	916.45361	-1398.60583	47.54391	797.43915	-1449.80127	26.15320	805.58832	-1439.13477	26.24783	720.10760	-1034.72742	83.48123	1360.96045	-954.06598	127.34000	1147.99365	-940.01129	172.90984	1045.68591	-942.14557	233.92505	923.21686	-982.97412	290.65109	844.05731	-936.50397	267.59390	828.67401	-949.32935	314.45206	771.85553	-1304.06128	132.94672	934.78674	-1067.15674	124.53657	929.78485	-1262.70886	-31.91957	952.41003	-1112.22925	-33.89797	963.34039	-1361.96631	154.10591	639.96362	-1324.45056	222.85782	476.88028	-1331.21533	203.84033	282.94836	-1298.66907	221.77440	71.89949	-1260.53955	185.57343	31.66562	-1273.57056	369.49438	50.54338	-1039.98303	38.93224	637.51709	-1080.00403	24.14689	459.19778	-1080.65344	-50.34319	281.72830	-1134.40527	-113.17363	74.81528	-1184.54382	-161.27890	46.92683	-1150.18811	25.47687	30.51435	-1219.63135	59.86453	1669.49866																																	 
168	1.670	-1251.87073	165.90254	1614.53894	-1120.75342	140.85176	1621.75171	-1268.56567	43.06624	1559.37610	-1139.04822	23.62583	1566.73425	-1197.70044	14.77932	1409.11987	-1191.93005	-28.02731	1098.33789	-1192.88208	135.27878	1331.16345	-1194.44556	173.53552	1163.53284	-1092.99683	-40.32444	1240.38196	-1351.05371	92.20215	1366.26221	-1419.15503	55.69460	1168.98401	-1430.44312	44.83770	1046.24548	-1429.14905	51.84300	915.51129	-1398.81091	52.07942	796.59961	-1450.17432	30.51200	804.74518	-1439.45581	30.24179	719.43085	-1035.42993	92.96066	1359.76978	-954.59955	137.54065	1147.22229	-941.00189	183.90611	1045.23694	-944.11523	246.25125	923.53766	-985.69897	303.60770	845.30042	-939.15320	281.10925	829.41241	-952.62189	328.75916	773.53638	-1304.73315	142.47838	933.12738	-1067.41895	132.68187	928.58942	-1263.88220	-22.57465	950.78571	-1113.39526	-25.39691	961.98993	-1362.75574	161.18906	637.39465	-1323.99805	231.20328	475.01218	-1330.85950	219.39102	281.44989	-1298.83801	246.46394	71.16640	-1260.62744	212.10074	29.96816	-1274.18274	395.46832	54.65723	-1040.09094	45.93204	636.86450	-1079.92432	29.75770	458.62299	-1080.61951	-47.03381	281.87070	-1134.19397	-112.69006	75.76865	-1184.54712	-160.97495	48.41145	-1150.09583	25.60676	30.46644	-1221.29028	70.22921	1668.36829																																	 
169	1.680	-1252.93665	176.21106	1612.89453	-1121.87415	151.16451	1620.49194	-1269.42358	53.12800	1558.01135	-1139.87891	33.80022	1565.71106	-1198.54932	24.59843	1408.08374	-1193.10657	-19.00718	1097.30078	-1193.42188	145.01120	1329.77405	-1194.84448	182.75804	1162.05688	-1093.91028	-31.22391	1239.54846	-1351.75183	102.39783	1365.00439	-1419.81616	63.53989	1168.13806	-1430.86340	51.37519	1045.34827	-1429.72314	57.47610	914.68091	-1399.21729	56.95607	795.83173	-1450.55298	35.20110	804.08374	-1440.05518	35.40588	719.70465	-1036.29419	102.50614	1358.57434	-955.43127	147.85678	1146.44202	-942.11029	194.67281	1044.67847	-946.23523	258.36365	923.75732	-988.58551	316.05942	846.32214	-941.84161	294.29532	830.04016	-955.91766	342.64377	775.00763	-1305.28955	152.09389	931.58008	-1067.96521	141.41814	927.53955	-1265.06409	-13.25198	949.21063	-1114.62317	-16.82768	960.70581	-1364.12207	168.97684	635.42859	-1323.39343	239.18991	473.04517	-1330.50903	233.98886	280.01028	-1298.93469	269.52805	70.85486	-1260.49390	236.80646	28.68772	-1275.18774	419.41364	59.02538	-1039.91028	52.89264	636.29877	-1079.82080	35.64806	457.97491	-1080.75452	-43.64867	282.05621	-1133.92346	-112.08715	76.93081	-1184.04541	-161.06656	50.12347	-1149.96814	25.73505	30.37587	-1219.06726	79.16749	1670.42700																																	 
170	1.690	-1253.88159	186.37321	1611.22205	-1122.84094	161.39682	1619.26038	-1270.28699	63.25624	1556.70618	-1140.75488	44.13332	1564.76843	-1199.46387	34.44629	1407.07825	-1194.28638	-9.91389	1096.28760	-1193.98865	154.81213	1328.44031	-1195.16516	192.10086	1160.70337	-1094.94666	-22.11839	1238.73816	-1352.53821	112.67648	1363.80579	-1420.10657	71.61787	1167.15088	-1431.80212	58.34079	1044.78247	-1430.48157	63.34693	913.94196	-1399.83557	62.25650	795.11060	-1450.79553	40.16339	803.39447	-1440.51416	40.07409	719.17725	-1037.02173	111.91768	1357.41687	-956.15277	158.00104	1145.65601	-943.33875	205.31004	1044.06519	-948.07300	269.97552	923.78680	-991.49835	328.20718	847.19299	-944.58575	306.95529	830.50500	-959.16388	355.89163	776.14813	-1305.86902	161.74548	930.14612	-1068.45959	150.21812	926.48645	-1266.29614	-3.75322	947.74426	-1115.90125	-8.05058	959.36047	-1365.62927	177.36061	633.94952	-1322.99719	246.79846	470.75055	-1329.99609	247.78191	278.77994	-1299.07971	290.88474	70.90456	-1260.61646	259.89493	27.74621	-1276.34485	441.44531	63.40565	-1040.23267	60.20568	635.62067	-1079.76440	41.78197	457.38770	-1080.72644	-39.93119	282.29919	-1133.71362	-111.71506	77.88817	-1183.93030	-160.52046	51.78924	-1149.85730	25.87526	30.32108	-1221.58289	90.76392	1669.72583																																	 
